<svg width="83" height="59" viewBox="0 0 83 59" fill="none" xmlns="http://www.w3.org/2000/svg">
<rect y="0.5" width="83" height="58" rx="8" fill="url(#paint0_linear_118_346)"/>
<path d="M19.4318 24.1818C19.2614 22.7424 18.5701 21.625 17.358 20.8295C16.1458 20.0341 14.6591 19.6364 12.8977 19.6364C11.6098 19.6364 10.483 19.8447 9.51705 20.2614C8.56061 20.678 7.8125 21.2509 7.27273 21.9801C6.74242 22.7093 6.47727 23.5379 6.47727 24.4659C6.47727 25.2424 6.66193 25.91 7.03125 26.4688C7.41004 27.018 7.89299 27.4773 8.48011 27.8466C9.06723 28.2064 9.68277 28.5047 10.3267 28.7415C10.9706 28.9687 11.5625 29.1534 12.1023 29.2955L15.0568 30.0909C15.8144 30.2898 16.6572 30.5644 17.5852 30.9148C18.5227 31.2652 19.4176 31.7434 20.2699 32.3494C21.1316 32.946 21.8419 33.7131 22.4006 34.6506C22.9593 35.5881 23.2386 36.7386 23.2386 38.1023C23.2386 39.6742 22.8267 41.0947 22.0028 42.3636C21.1884 43.6326 19.9953 44.6411 18.4233 45.3892C16.8608 46.1373 14.9621 46.5114 12.7273 46.5114C10.6439 46.5114 8.83996 46.1752 7.31534 45.5028C5.80019 44.8305 4.60701 43.893 3.7358 42.6903C2.87405 41.4877 2.38636 40.0909 2.27273 38.5H5.90909C6.00379 39.5985 6.37311 40.5076 7.01705 41.2273C7.67045 41.9375 8.49432 42.4678 9.48864 42.8182C10.4924 43.1591 11.572 43.3295 12.7273 43.3295C14.072 43.3295 15.2794 43.1117 16.3494 42.6761C17.4195 42.2311 18.267 41.6155 18.892 40.8295C19.517 40.0341 19.8295 39.1061 19.8295 38.0455C19.8295 37.0795 19.5597 36.2936 19.0199 35.6875C18.4801 35.0814 17.7699 34.589 16.8892 34.2102C16.0085 33.8314 15.0568 33.5 14.0341 33.2159L10.4545 32.1932C8.18182 31.5398 6.38258 30.607 5.05682 29.3949C3.73106 28.1828 3.06818 26.5966 3.06818 24.6364C3.06818 23.0076 3.50852 21.5871 4.3892 20.375C5.27936 19.1534 6.47254 18.2064 7.96875 17.5341C9.47443 16.8523 11.1553 16.5114 13.0114 16.5114C14.8864 16.5114 16.553 16.8475 18.0114 17.5199C19.4697 18.1828 20.625 19.0919 21.4773 20.2472C22.339 21.4025 22.7936 22.714 22.8409 24.1818H19.4318ZM29.0305 46V16.9091H39.201C41.2275 16.9091 42.8989 17.2595 44.2152 17.9602C45.5315 18.6515 46.5116 19.5843 47.1555 20.7585C47.7995 21.9233 48.1214 23.2159 48.1214 24.6364C48.1214 25.8864 47.8989 26.9186 47.4538 27.733C47.0182 28.5473 46.4406 29.1913 45.7209 29.6648C45.0107 30.1383 44.2389 30.4886 43.4055 30.7159V31C44.2957 31.0568 45.1906 31.3693 46.0902 31.9375C46.9898 32.5057 47.7427 33.3201 48.3487 34.3807C48.9548 35.4413 49.2578 36.7386 49.2578 38.2727C49.2578 39.7311 48.9264 41.0426 48.2635 42.2074C47.6006 43.3722 46.5542 44.2955 45.1243 44.9773C43.6944 45.6591 41.8336 46 39.5419 46H29.0305ZM32.5533 42.875H39.5419C41.843 42.875 43.4766 42.4299 44.4425 41.5398C45.4179 40.6402 45.9055 39.5511 45.9055 38.2727C45.9055 37.2879 45.6546 36.3788 45.1527 35.5455C44.6508 34.7027 43.9358 34.0303 43.0078 33.5284C42.0798 33.017 40.9813 32.7614 39.7124 32.7614H32.5533V42.875ZM32.5533 29.6932H39.0874C40.148 29.6932 41.1044 29.4848 41.9567 29.0682C42.8184 28.6515 43.5002 28.0644 44.0021 27.3068C44.5135 26.5492 44.7692 25.6591 44.7692 24.6364C44.7692 23.358 44.3241 22.2737 43.4339 21.3835C42.5438 20.4839 41.1328 20.0341 39.201 20.0341H32.5533V29.6932ZM53.4553 20.0341V16.9091H75.2734V20.0341H66.1257V46H62.603V20.0341H53.4553Z" fill="white"/>
<defs>
<linearGradient id="paint0_linear_118_346" x1="2.39349e-06" y1="1.03703" x2="98.1934" y2="53.0029" gradientUnits="userSpaceOnUse">
<stop stop-color="#FF5A85" stop-opacity="0.44"/>
<stop offset="0.491911" stop-color="#7949FF" stop-opacity="0.46"/>
<stop offset="1" stop-color="#53B5FA" stop-opacity="0.52"/>
</linearGradient>
</defs>
</svg>
